<svg width="48" height="96" version="1.1" xmlns="http://www.w3.org/2000/svg" desc="Created with imagetracer.js version 1.2.6" ><path fill="rgb(0,0,0)" stroke="rgb(0,0,0)" stroke-width="1" opacity="1" d="M 0 0 L 48 0 L 48 96 L 32.5 96 L 32 94.5 L 30 89.5 L 34 86.5 Q 33.3 84.3 35.5 85 L 37.5 86 Q 43.2 82.7 43 73.5 L 42 72.5 L 42 64.5 L 34.5 55 L 25.5 54 L 23.5 55 Q 21.7 52.3 15.5 54 L 12 56.5 L 6 64.5 L 5 77.5 L 10.5 86 L 14 85 Q 12.9 87.7 15.5 87 Q 18.5 87.5 18 91.5 L 16 96 L 0.5 96 L 0 95.5 L 0 0 Z " /><path fill="rgb(0,0,0)" stroke="rgb(0,0,0)" stroke-width="1" opacity="1" d="M 13.5 71 L 22 71.5 L 13 72 L 14 78.5 L 12 77.5 Q 10.8 72.3 13.5 71 Z " /><path fill="rgb(0,0,0)" stroke="rgb(0,0,0)" stroke-width="1" opacity="1" d="M 26.5 71 L 34.5 71 L 36 72.5 Q 37.3 77.8 34.5 79 L 35 77.5 L 35 72 L 26.5 72 L 26.5 71 Z " /><path fill="rgb(0,0,0)" stroke="rgb(0,0,0)" stroke-width="1" opacity="1" d="M 18.5 73 L 20 76 Q 16.5 77.1 18.5 73 Z " /><path fill="rgb(0,0,0)" stroke="rgb(0,0,0)" stroke-width="1" opacity="1" d="M 29.5 73 L 31 76 Q 27.3 77.5 28 74.5 L 29.5 73 Z " /><path fill="rgb(0,0,0)" stroke="rgb(0,0,0)" stroke-width="1" opacity="1" d="M 22 74 L 26 74 L 26 75.5 L 24.5 75 L 22.5 76 L 22 74 Z " /><path fill="rgb(0,0,0)" stroke="rgb(0,0,0)" stroke-width="1" opacity="1" d="M 22.5 84 L 26 84.5 L 22.5 85 L 22.5 84 Z " /><path fill="rgb(167,111,54)" stroke="rgb(167,111,54)" stroke-width="1" opacity="1" d="M 15.5 54 L 24.5 55 Q 26 52.5 31.5 54 L 36 56.5 L 41 63.5 L 41 65.5 L 42 71.5 L 41 71.5 L 40 65.5 L 35.5 59 Q 33.5 56.2 29 57 Q 27.9 59.7 30.5 59 L 28.5 62 Q 26.8 59.2 20.5 61 L 15 69 L 20 69.5 L 15.5 71 Q 13 69.8 14 66 L 9 65 L 7 73.5 Q 9.2 74.7 8 79.5 L 6 80.5 L 5 73.5 Q 7.8 71.8 6 65.5 L 13.5 55 L 15.5 54 Z M 20 57 L 20 60 L 28 60 L 28 58 L 25 59 L 20 57 Z " /><path fill="rgb(167,111,54)" stroke="rgb(167,111,54)" stroke-width="1" opacity="1" d="M 29.5 63 Q 35 64.6 34 71 L 27.5 70 L 26 70.5 Q 27.6 67.5 33 69 L 29.5 63 Z " /><path fill="rgb(167,111,54)" stroke="rgb(167,111,54)" stroke-width="1" opacity="1" d="M 21.5 72 L 22 74 L 20 73.5 L 21.5 72 Z " /><path fill="rgb(167,111,54)" stroke="rgb(167,111,54)" stroke-width="1" opacity="1" d="M 26.5 72 L 27.5 74 Q 24.7 74.7 26.5 72 Z " /><path fill="rgb(167,111,54)" stroke="rgb(167,111,54)" stroke-width="1" opacity="1" d="M 16.5 73 L 18 73.5 L 15.5 75 L 16.5 73 Z " /><path fill="rgb(167,111,54)" stroke="rgb(167,111,54)" stroke-width="1" opacity="1" d="M 31.5 73 L 32.5 75 Q 29.7 75.7 31.5 73 Z " /><path fill="rgb(167,111,54)" stroke="rgb(167,111,54)" stroke-width="1" opacity="1" d="M 23 75 L 25 75.5 L 22.5 81 L 21 77.5 L 23 77.5 L 23 75 Z " /><path fill="rgb(167,111,54)" stroke="rgb(167,111,54)" stroke-width="1" opacity="1" d="M 11.5 76 L 14 84.5 L 17.5 88 Q 19.8 87.3 19 89.5 L 13 84.5 L 10 77.5 L 11.5 76 Z " /><path fill="rgb(167,111,54)" stroke="rgb(167,111,54)" stroke-width="1" opacity="1" d="M 36.5 76 L 37 79.5 Q 35.5 86 30.5 89 L 29 88.5 L 34 84.5 L 36.5 76 Z " /><path fill="rgb(167,111,54)" stroke="rgb(167,111,54)" stroke-width="1" opacity="1" d="M 40 77 Q 43.3 75.9 42 80 Q 38.7 81.1 40 77 Z " /><path fill="rgb(167,111,54)" stroke="rgb(167,111,54)" stroke-width="1" opacity="1" d="M 15 79 L 21 79.5 L 16 80.5 L 20 81 L 19 84.5 L 22 85.5 L 19.5 86 L 18 83.5 L 18.5 82 L 15 80.5 L 15 79 Z " /><path fill="rgb(167,111,54)" stroke="rgb(167,111,54)" stroke-width="1" opacity="1" d="M 27.5 79 Q 33.6 77.8 33 80.5 L 31.5 80 Q 26.5 81 27.5 79 Z " /><path fill="rgb(167,111,54)" stroke="rgb(167,111,54)" stroke-width="1" opacity="1" d="M 28.5 81 L 31 81.5 L 29 82.5 L 30 84.5 L 26.5 86 L 27.5 84 L 29 84.5 Q 29.8 82.3 27.5 83 L 28.5 81 Z " /><path fill="rgb(167,111,54)" stroke="rgb(167,111,54)" stroke-width="1" opacity="1" d="M 22.5 89 L 26 89.5 L 22.5 90 L 22.5 89 Z " /><path fill="rgb(159,74,28)" stroke="rgb(159,74,28)" stroke-width="1" opacity="1" d="M 20 57 L 24.5 59 L 28 58 L 27.5 60 L 20 60 L 20 57 Z " /><path fill="rgb(159,74,28)" stroke="rgb(159,74,28)" stroke-width="1" opacity="1" d="M 29 57 L 32.5 57 L 38 61.5 L 39.5 65 L 42 64 L 41.5 67 L 40.5 65 L 40 68.5 L 43 73.5 L 43 77.5 L 41.5 77 Q 38.5 76.2 40 80 L 42 80.5 L 37.5 86 L 35 84.5 L 34.5 82 L 33 85.5 Q 35.3 86.8 32.5 88 L 30.5 88 L 29 88.5 L 32 96 L 16.5 96 L 16 94.5 L 19 88 L 15.5 86 L 14 86.5 L 14 84.5 L 13.5 82 L 11.5 86 L 8 83.5 L 7 80.5 Q 9.2 79.3 8 74.5 L 7 70.5 L 9 65 L 14 66 L 15 70.5 L 13 71.5 L 13.5 73 L 12 72.5 Q 12.8 76.8 10 77.5 L 12.5 82 L 13 79.5 Q 10.8 78.3 13.5 77 L 21 78.5 L 15 79 L 16.5 82 L 19 82.5 L 18 84.5 L 21.5 86 L 21.5 84 L 25.5 85 L 27 84.5 L 26.5 86 L 30 84.5 L 29 82.5 L 33 81 Q 34.4 77 27.5 79 L 25.5 76 Q 27 79.5 33.5 78 Q 34.8 75.8 36 78.5 L 35 81.5 L 36 81.5 L 37 76.5 L 35.5 72 L 34.5 74 L 34 72.5 L 34 70.5 L 34 67.5 L 29 61.5 L 30.5 59 Q 27.9 59.7 29 57 Z M 23 89 L 23 90 L 26 90 L 23 89 Z " /><path fill="rgb(159,74,28)" stroke="rgb(159,74,28)" stroke-width="1" opacity="1" d="M 17.5 70 L 21 70.5 L 17.5 71 L 17.5 70 Z " /><path fill="rgb(159,74,28)" stroke="rgb(159,74,28)" stroke-width="1" opacity="1" d="M 27.5 70 L 32 70.5 L 27.5 71 L 27.5 70 Z " /><path fill="rgb(159,74,28)" stroke="rgb(159,74,28)" stroke-width="1" opacity="1" d="M 22.5 72 L 23 73.5 L 21 74.5 L 22.5 72 Z " /><path fill="rgb(159,74,28)" stroke="rgb(159,74,28)" stroke-width="1" opacity="1" d="M 25.5 72 L 27 74.5 L 25 73.5 L 25.5 72 Z " /><path fill="rgb(159,74,28)" stroke="rgb(159,74,28)" stroke-width="1" opacity="1" d="M 17.5 74 L 19 76.5 L 17 75.5 L 17.5 74 Z " /><path fill="rgb(159,74,28)" stroke="rgb(159,74,28)" stroke-width="1" opacity="1" d="M 5.5 75 L 6 77.5 L 5 77.5 L 5.5 75 Z " /><path fill="rgb(159,74,28)" stroke="rgb(159,74,28)" stroke-width="1" opacity="1" d="M 23.5 81 L 28 81.5 L 23.5 82 L 23.5 81 Z " /><path fill="rgb(253,238,183)" stroke="rgb(253,238,183)" stroke-width="1" opacity="1" d="M 20 61 L 28 61 L 28 63.5 L 32 69 L 26.5 69 L 26 70.5 L 24.5 74 L 22 69 L 16.5 69 L 16 67.5 L 20 61 Z " /><path fill="rgb(253,238,183)" stroke="rgb(253,238,183)" stroke-width="1" opacity="1" d="M 15 72 L 18 72.5 L 15 74.5 Q 14.3 76.8 16.5 76 L 17.5 78 L 14 76.5 L 15 72 Z " /><path fill="rgb(253,238,183)" stroke="rgb(253,238,183)" stroke-width="1" opacity="1" d="M 20.5 76 L 21 78 L 19 77.5 L 20.5 76 Z " /><path fill="rgb(253,238,183)" stroke="rgb(253,238,183)" stroke-width="1" opacity="1" d="M 24.5 76 L 26 79.5 L 23.5 80 L 24 78.5 L 24.5 76 Z " /><path fill="rgb(253,238,183)" stroke="rgb(253,238,183)" stroke-width="1" opacity="1" d="M 27.5 76 L 28.5 78 Q 25.7 78.7 27.5 76 Z " /><path fill="rgb(253,238,183)" stroke="rgb(253,238,183)" stroke-width="1" opacity="1" d="M 31.5 76 Q 34.1 75.3 33 78 L 30 77.5 L 31.5 76 Z " /><path fill="rgb(253,238,183)" stroke="rgb(253,238,183)" stroke-width="1" opacity="1" d="M 16.5 80 L 21 80.5 L 16.5 81 L 16.5 80 Z " /><path fill="rgb(253,238,183)" stroke="rgb(253,238,183)" stroke-width="1" opacity="1" d="M 27.5 80 L 31 80.5 L 27.5 81 L 27.5 80 Z " /><path fill="rgb(253,238,183)" stroke="rgb(253,238,183)" stroke-width="1" opacity="1" d="M 20.5 83 L 28 83.5 L 20.5 84 L 20.5 83 Z " /><path fill="rgb(226,196,144)" stroke="rgb(226,196,144)" stroke-width="1" opacity="1" d="M 28.5 62 L 33 68.5 L 32 68.5 L 28 63.5 L 28.5 62 Z " /><path fill="rgb(226,196,144)" stroke="rgb(226,196,144)" stroke-width="1" opacity="1" d="M 18.5 64 L 16 67.5 L 15.5 69 L 15 67.5 L 18.5 64 Z " /><path fill="rgb(226,196,144)" stroke="rgb(226,196,144)" stroke-width="1" opacity="1" d="M 22.5 71 L 24 73.5 L 23 73.5 L 22.5 71 Z " /><path fill="rgb(226,196,144)" stroke="rgb(226,196,144)" stroke-width="1" opacity="1" d="M 28.5 72 L 31 72.5 L 28.5 73 L 28.5 72 Z " /><path fill="rgb(226,196,144)" stroke="rgb(226,196,144)" stroke-width="1" opacity="1" d="M 33.5 72 L 35 75.5 L 33.5 78 L 33 76 L 31 75.5 L 33 74.5 Q 30.7 73.3 33.5 72 Z " /><path fill="rgb(226,196,144)" stroke="rgb(226,196,144)" stroke-width="1" opacity="1" d="M 20.5 74 L 22 76.5 L 20 75.5 L 20.5 74 Z " /><path fill="rgb(226,196,144)" stroke="rgb(226,196,144)" stroke-width="1" opacity="1" d="M 27.5 74 L 28 75.5 L 26 76.5 L 27.5 74 Z " /><path fill="rgb(226,196,144)" stroke="rgb(226,196,144)" stroke-width="1" opacity="1" d="M 15.5 75 L 19 77.5 L 16.5 76 L 15.5 75 Z " /><path fill="rgb(226,196,144)" stroke="rgb(226,196,144)" stroke-width="1" opacity="1" d="M 25.5 78 L 27 81 L 23 80.5 L 26 79.5 L 25.5 78 Z " /><path fill="rgb(226,196,144)" stroke="rgb(226,196,144)" stroke-width="1" opacity="1" d="M 20.5 82 L 27 82.5 L 20 83 L 19.5 85 L 19 83.5 L 20.5 82 Z " /></svg>